# xmcd CD database file
#
# Track frame offsets:
#	150
#	36098
#	52172
#	65824
#	89946
#	108796
#	134604
#	161714
#	211516
#	228041
#	269729
#	282395
#
# Disc length: 4010 seconds
#
# Revision: 0
# Processed by: cddbd v1.5.2PL0 Copyright (c) Steve Scherf et al.
# Submitted via: CDex 1.70beta3
#
DISCID=b90fa80c
DTITLE=Shibusashirazu - 渋彩歌謡大全
DYEAR=2012
DGENRE=Jazz
TTITLE0=帰ろかな
TTITLE1=一週間
TTITLE2=恋は夢いろ
TTITLE3=Swallowtail Butterfly ～あいのうた～
TTITLE4=黄昏のビギン
TTITLE5=RYDEEN
TTITLE6=夢は夜ひらく
TTITLE7=渡
TTITLE8=黒い花びら
TTITLE9=悪漢
TTITLE10=Ponta De Areia
TTITLE11=君は答えよ
EXTD=YEAR: 2012
EXTT0=
EXTT1=
EXTT2=
EXTT3=
EXTT4=
EXTT5=
EXTT6=
EXTT7=
EXTT8=
EXTT9=
EXTT10=
EXTT11=
PLAYORDER=
